<svg width="41" height="36" viewBox="0 0 41 36" fill="none" xmlns="http://www.w3.org/2000/svg">
<rect x="0.5" width="40" height="36" rx="18" fill="white"/>
<path d="M30.5 14.608V22.75C30.5 24.483 29.1435 25.8992 27.4344 25.9949L27.25 26H13.75C12.017 26 10.6008 24.6435 10.5051 22.9344L10.5 22.75V14.608L20.152 19.6644C20.37 19.7785 20.63 19.7785 20.848 19.6644L30.5 14.608ZM13.75 10H27.25C28.9347 10 30.3201 11.2819 30.4838 12.9236L20.5 18.1533L10.5162 12.9236C10.6739 11.3427 11.9643 10.0954 13.5641 10.0052L13.75 10H27.25H13.75Z" fill="#212121"/>
</svg>
