<svg width="19" height="20" viewBox="0 0 19 20" fill="none" xmlns="http://www.w3.org/2000/svg">
<path d="M15.6568 14.8643L14.4698 16.0382C13.595 16.8968 12.4598 18.0008 11.064 19.3503C10.1917 20.1937 8.80786 20.1936 7.93576 19.3501L4.44466 15.9542C4.0059 15.5234 3.63863 15.1601 3.34279 14.8643C-0.057622 11.4639 -0.057622 5.95072 3.34279 2.55031C6.7432 -0.850102 12.2564 -0.850102 15.6568 2.55031C19.0572 5.95072 19.0572 11.4639 15.6568 14.8643ZM12 8.98202C12 7.60117 10.8806 6.48179 9.49976 6.48179C8.11896 6.48179 6.99958 7.60117 6.99958 8.98202C6.99958 10.3628 8.11896 11.4822 9.49976 11.4822C10.8806 11.4822 12 10.3628 12 8.98202Z" fill="#212121"/>
</svg>
